<svg xmlns="http://www.w3.org/2000/svg" width="24" height="24" viewBox="0 0 24 24" fill="none">
  <path d="M6.79682 5.53999L7.82573 4.51108C7.85051 4.48617 7.86781 4.45481 7.87565 4.42056C7.88349 4.38631 7.88157 4.35055 7.87009 4.31734C7.85861 4.28413 7.83805 4.25481 7.81073 4.23271C7.78341 4.21061 7.75045 4.19662 7.71557 4.19233L3.96088 3.74936C3.84135 3.7353 3.73823 3.83608 3.75229 3.95795L4.19526 7.71264C4.21401 7.86733 4.40385 7.93295 4.51401 7.8228L5.53823 6.79858L8.67182 9.92983C8.74448 10.0025 8.86401 10.0025 8.93667 9.92983L9.93042 8.93842C10.0031 8.86577 10.0031 8.74624 9.93042 8.67358L6.79682 5.53999ZM15.0632 9.92983C15.1359 10.0025 15.2554 10.0025 15.3281 9.92983L18.4617 6.79858L19.4859 7.8228C19.5108 7.84758 19.5422 7.86488 19.5764 7.87272C19.6107 7.88056 19.6464 7.87864 19.6796 7.86716C19.7128 7.85568 19.7422 7.83512 19.7643 7.8078C19.7864 7.78049 19.8003 7.74752 19.8046 7.71264L20.2476 3.9603C20.2617 3.84077 20.1609 3.73764 20.039 3.7517L16.2843 4.19467C16.1296 4.21342 16.064 4.40327 16.1742 4.51342L17.2031 5.54233L14.0695 8.67124C14.0346 8.70648 14.015 8.75406 14.015 8.80366C14.015 8.85325 14.0346 8.90084 14.0695 8.93608L15.0632 9.92983ZM19.8046 16.2861C19.7859 16.1314 19.596 16.0658 19.4859 16.1759L18.4617 17.2001L15.3281 14.0689C15.2928 14.034 15.2452 14.0144 15.1956 14.0144C15.1461 14.0144 15.0985 14.034 15.0632 14.0689L14.0695 15.0603C14.0346 15.0955 14.015 15.1431 14.015 15.1927C14.015 15.2423 14.0346 15.2899 14.0695 15.3251L17.2031 18.4587L16.1742 19.4876C16.1494 19.5125 16.1321 19.5439 16.1242 19.5782C16.1164 19.6124 16.1183 19.6482 16.1298 19.6814C16.1413 19.7146 16.1618 19.7439 16.1892 19.766C16.2165 19.7881 16.2494 19.8021 16.2843 19.8064L20.039 20.2494C20.1585 20.2634 20.2617 20.1626 20.2476 20.0408L19.8046 16.2861ZM8.93667 14.0689C8.90142 14.034 8.85384 14.0144 8.80424 14.0144C8.75465 14.0144 8.70706 14.034 8.67182 14.0689L5.53823 17.2001L4.51401 16.1759C4.4891 16.1511 4.45774 16.1338 4.42349 16.126C4.38924 16.1182 4.35348 16.1201 4.32027 16.1316C4.28706 16.143 4.25774 16.1636 4.23564 16.1909C4.21354 16.2182 4.19955 16.2512 4.19526 16.2861L3.75229 20.0384C3.73823 20.158 3.83901 20.2611 3.96088 20.247L7.71557 19.804C7.87026 19.7853 7.93588 19.5955 7.82573 19.4853L6.79682 18.4587L9.93042 15.3275C10.0031 15.2548 10.0031 15.1353 9.93042 15.0626L8.93667 14.0689Z" fill="#686868"/>
</svg>