<svg xmlns="http://www.w3.org/2000/svg" width="24" height="24" viewBox="0 0 24 24" fill="none">
  <path d="M12.001 2C17.635 2 22.001 6.127 22.001 11.7C22.001 17.273 17.634 21.4 12.001 21.4C11.0232 21.4012 10.0496 21.2721 9.10598 21.016C8.92878 20.9673 8.74021 20.9811 8.57198 21.055L6.58698 21.931C6.46711 21.984 6.33606 22.0067 6.20535 21.9972C6.07464 21.9876 5.94828 21.9461 5.83738 21.8763C5.72647 21.8065 5.63442 21.7105 5.56931 21.5967C5.5042 21.483 5.46803 21.355 5.46398 21.224L5.40998 19.444C5.40607 19.3357 5.38022 19.2294 5.33398 19.1314C5.28774 19.0334 5.22208 18.9458 5.14098 18.874C3.19598 17.134 2.00098 14.616 2.00098 11.7C2.00098 6.127 6.36698 2 12.001 2ZM5.99598 14.537C5.71398 14.984 6.26398 15.488 6.68498 15.168L9.83998 12.774C9.9441 12.6954 10.071 12.6529 10.2015 12.6529C10.3319 12.6529 10.4589 12.6954 10.563 12.774L12.899 14.524C13.0648 14.6485 13.2546 14.7373 13.4564 14.7848C13.6583 14.8322 13.8678 14.8373 14.0717 14.7997C14.2756 14.7621 14.4695 14.6827 14.6411 14.5664C14.8128 14.4501 14.9585 14.2994 15.069 14.124L18.006 9.464C18.288 9.016 17.738 8.512 17.317 8.831L14.162 11.227C14.0578 11.3056 13.9309 11.3481 13.8005 11.3481C13.67 11.3481 13.5431 11.3056 13.439 11.227L11.102 9.477C10.9362 9.35265 10.7465 9.264 10.5447 9.21664C10.343 9.16927 10.1336 9.16422 9.92984 9.2018C9.72605 9.23938 9.53226 9.31878 9.36069 9.43499C9.18912 9.5512 9.04349 9.7017 8.93298 9.877L5.99598 14.537Z" fill="#3360A9"/>
</svg>