<svg xmlns="http://www.w3.org/2000/svg" width="24" height="24" viewBox="0 0 24 24" fill="none">
  <path d="M10.2 6.94922C10.3989 6.94922 10.5896 7.02824 10.7303 7.16889C10.8709 7.30954 10.95 7.50031 10.95 7.69922V9.44922H12.7C12.8989 9.44922 13.0896 9.52824 13.2303 9.66889C13.3709 9.80954 13.45 10.0003 13.45 10.1992C13.45 10.3981 13.3709 10.5889 13.2303 10.7295C13.0896 10.8702 12.8989 10.9492 12.7 10.9492H10.95V12.6992C10.95 12.8981 10.8709 13.0889 10.7303 13.2295C10.5896 13.3702 10.3989 13.4492 10.2 13.4492C10.001 13.4492 9.81027 13.3702 9.66962 13.2295C9.52897 13.0889 9.44995 12.8981 9.44995 12.6992V10.9492H7.69995C7.50104 10.9492 7.31027 10.8702 7.16962 10.7295C7.02897 10.5889 6.94995 10.3981 6.94995 10.1992C6.94995 10.0003 7.02897 9.80954 7.16962 9.66889C7.31027 9.52824 7.50104 9.44922 7.69995 9.44922H9.44995V7.69922C9.44995 7.50031 9.52897 7.30954 9.66962 7.16889C9.81027 7.02824 10.001 6.94922 10.2 6.94922Z" fill="#686868"/>
  <path fill-rule="evenodd" clip-rule="evenodd" d="M5.39904 14.9447C6.57318 16.1187 8.13879 16.8186 9.79655 16.9109C11.4543 17.0031 13.0879 16.4812 14.385 15.4447L19.541 20.6007C19.6097 20.6744 19.6925 20.7335 19.7845 20.7745C19.8765 20.8155 19.9758 20.8376 20.0765 20.8393C20.1772 20.8411 20.2773 20.8226 20.3706 20.7849C20.464 20.7471 20.5489 20.691 20.6201 20.6198C20.6913 20.5486 20.7474 20.4637 20.7852 20.3703C20.8229 20.277 20.8414 20.1769 20.8396 20.0762C20.8379 19.9755 20.8158 19.8762 20.7748 19.7842C20.7338 19.6922 20.6747 19.6094 20.601 19.5407L15.446 14.3847C16.2593 13.3667 16.7605 12.135 16.8891 10.8383C17.0178 9.54166 16.7684 8.23549 16.171 7.07746C15.5737 5.91943 14.6539 4.95904 13.5228 4.31223C12.3917 3.66542 11.0975 3.35982 9.79647 3.43234C8.49547 3.50485 7.24327 3.95238 6.19101 4.72089C5.13876 5.4894 4.33143 6.54605 3.86647 7.76329C3.40152 8.98053 3.29882 10.3063 3.57077 11.5807C3.84272 12.855 4.47769 14.0233 5.39904 14.9447ZM6.45904 6.45874C5.47377 7.4427 4.91971 8.77775 4.91878 10.1702C4.91784 11.5627 5.47009 12.8985 6.45404 13.8837C7.438 14.869 8.77305 15.4231 10.1655 15.424C11.558 15.4249 12.8938 14.8727 13.879 13.8887L13.884 13.8837L13.889 13.8787C14.873 12.8935 15.4253 11.5577 15.4243 10.1652C15.4234 8.77275 14.8693 7.4377 13.884 6.45374C13.3962 5.96654 12.8171 5.5802 12.18 5.31677C11.5428 5.05335 10.86 4.91801 10.1705 4.91847C8.77805 4.91941 7.443 5.47346 6.45904 6.45874Z" fill="#686868"/>
</svg>