<svg xmlns="http://www.w3.org/2000/svg" width="24" height="24" viewBox="0 0 24 24" fill="none">
  <path d="M7.69995 9.44922C7.50104 9.44922 7.31027 9.52824 7.16962 9.66889C7.02897 9.80954 6.94995 10.0003 6.94995 10.1992C6.94995 10.3981 7.02897 10.5889 7.16962 10.7295C7.31027 10.8702 7.50104 10.9492 7.69995 10.9492H12.7C12.8989 10.9492 13.0896 10.8702 13.2303 10.7295C13.3709 10.5889 13.45 10.3981 13.45 10.1992C13.45 10.0003 13.3709 9.80954 13.2303 9.66889C13.0896 9.52824 12.8989 9.44922 12.7 9.44922H7.69995Z" fill="#686868"/>
  <path fill-rule="evenodd" clip-rule="evenodd" d="M5.39891 14.9453C6.57305 16.1192 8.13866 16.8192 9.79642 16.9114C11.4542 17.0037 13.0878 16.4817 14.3849 15.4453L19.5409 20.6013C19.6096 20.675 19.6924 20.7341 19.7844 20.7751C19.8764 20.8161 19.9757 20.8381 20.0764 20.8399C20.1771 20.8417 20.2771 20.8231 20.3705 20.7854C20.4639 20.7477 20.5487 20.6915 20.6199 20.6203C20.6912 20.5491 20.7473 20.4643 20.785 20.3709C20.8228 20.2775 20.8413 20.1775 20.8395 20.0768C20.8377 19.9761 20.8157 19.8767 20.7747 19.7847C20.7337 19.6927 20.6746 19.6099 20.6009 19.5413L15.4459 14.3853C16.2595 13.3671 16.761 12.1352 16.8898 10.8383C17.0187 9.54137 16.7694 8.23488 16.172 7.07654C15.5746 5.91821 14.6547 4.95755 13.5233 4.31055C12.3919 3.66354 11.0975 3.35786 9.7962 3.43039C8.49491 3.50292 7.24244 3.95057 6.18998 4.71929C5.13752 5.48802 4.33007 6.54495 3.86512 7.7625C3.40016 8.98005 3.29758 10.3062 3.56974 11.5807C3.84191 12.8553 4.4772 14.0238 5.39891 14.9453ZM6.45891 6.45929C5.47363 7.44324 4.91958 8.77829 4.91864 10.1708C4.9177 11.5632 5.46995 12.899 6.45391 13.8843C7.43786 14.8696 8.77291 15.4236 10.1654 15.4246C11.5578 15.4255 12.8936 14.8732 13.8789 13.8893L13.8839 13.8843L13.8879 13.8793C14.8437 12.8885 15.372 11.5621 15.3592 10.1855C15.3465 8.80899 14.7935 7.49255 13.8195 6.51974C12.8455 5.54693 11.5284 4.99559 10.1519 4.98447C8.77533 4.97335 7.44949 5.50334 6.45991 6.46029" fill="#686868"/>
</svg>