<svg xmlns="http://www.w3.org/2000/svg" width="45" height="45" viewBox="0 0 45 45" fill="none">
   <rect width="45" height="45" rx="4" fill="#3360A9" />
   <path
      d="M34.9657 31.1274C34.8033 31.8551 34.4009 32.5071 33.823 32.9784C33.1918 33.6186 32.4395 34.1271 31.6101 34.4741C30.7806 34.8212 29.8905 34.9999 28.9913 35H28.5712C26.6841 34.8975 24.8363 34.4199 23.1359 33.595H23.123C22.7287 33.4114 22.3216 33.2279 21.9273 33.0042C19.9424 31.8913 18.1219 30.5079 16.5178 28.8938C14.4362 26.9386 12.728 24.6206 11.4767 22.0534C10.8118 20.6465 10.3679 19.1453 10.1609 17.603C9.85642 15.9886 10.0396 14.3201 10.687 12.8101C11.0957 12.1289 11.5948 11.5062 12.1709 10.9591C12.43 10.666 12.7469 10.4295 13.1017 10.2645C13.4564 10.0995 13.8414 10.0094 14.2325 10C14.6579 10.047 15.0697 10.1781 15.4441 10.3855C15.8184 10.593 16.1478 10.8728 16.4131 11.2086C17.0038 11.851 17.7251 12.5206 18.3171 13.1384L19.1315 13.9398C19.6097 14.3638 19.9057 14.9558 19.9587 15.5943C19.9587 16.1799 19.7428 16.7447 19.3538 17.1829C19.1018 17.4894 18.8343 17.7828 18.5524 18.0619L18.29 18.3372C18.1375 18.4794 18.0211 18.6552 17.9487 18.8504C17.8841 19.0425 17.8583 19.2394 17.8712 19.4411C18.0793 19.9982 18.4063 20.5049 18.8277 20.925C19.4856 21.8169 20.1423 22.5924 20.8118 23.4326C22.0229 24.8386 23.4602 26.0325 25.0644 26.9653C25.2286 27.0855 25.4173 27.1656 25.6177 27.2005C25.7909 27.2134 25.9667 27.1876 26.1295 27.123C26.5884 26.8528 26.9956 26.5064 27.3368 26.0979C27.7957 25.5359 28.4545 25.1737 29.1749 25.0871C29.8681 25.0966 30.5294 25.3801 31.0142 25.8756C31.2766 26.0979 31.5649 26.4004 31.8415 26.6899L32.2344 27.0958L32.6416 27.49L33.3383 28.1984C33.7537 28.5672 34.1432 28.9614 34.5068 29.3811C34.8713 29.8852 35.0355 30.5095 34.9657 31.1274ZM30.2529 22.1323C29.9925 22.1296 29.7435 22.0249 29.5594 21.8408C29.3753 21.6567 29.2706 21.4077 29.268 21.1473C29.2693 20.4038 29.1239 19.6673 28.84 18.9801C28.5561 18.2929 28.1393 17.6685 27.6135 17.1428C27.0878 16.617 26.4634 16.2002 25.7762 15.9163C25.089 15.6324 24.3525 15.487 23.609 15.4883C23.3478 15.4883 23.0972 15.3846 22.9125 15.1999C22.7278 15.0151 22.624 14.7646 22.624 14.5034C22.624 14.2422 22.7278 13.9916 22.9125 13.8069C23.0972 13.6222 23.3478 13.5184 23.609 13.5184C24.6113 13.5169 25.604 13.7132 26.5302 14.096C27.4565 14.4789 28.2981 15.0407 29.0068 15.7495C29.7155 16.4582 30.2774 17.2998 30.6603 18.226C31.0431 19.1523 31.2394 20.145 31.2379 21.1473C31.2382 21.2767 31.213 21.405 31.1636 21.5246C31.1142 21.6443 31.0417 21.753 30.9501 21.8445C30.8586 21.9361 30.7499 22.0086 30.6302 22.058C30.5106 22.1074 30.3823 22.1326 30.2529 22.1323Z"
      fill="white" />
   <path
      d="M34.064 21.9778C33.8168 21.9752 33.5804 21.8759 33.4055 21.7012C33.2305 21.5265 33.1309 21.2902 33.1281 21.043C33.13 19.8392 32.8945 18.6467 32.4351 17.534C31.9758 16.4212 31.3015 15.41 30.4508 14.5581C29.6002 13.7062 28.59 13.0304 27.4779 12.5694C26.3658 12.1084 25.1737 11.8712 23.9699 11.8713C23.8442 11.8759 23.7189 11.855 23.6014 11.8101C23.484 11.7651 23.3768 11.697 23.2862 11.6097C23.1957 11.5224 23.1237 11.4177 23.0745 11.302C23.0253 11.1862 23 11.0617 23 10.936C23 10.8102 23.0253 10.6857 23.0745 10.57C23.1237 10.4542 23.1957 10.3496 23.2862 10.2623C23.3768 10.175 23.484 10.1068 23.6014 10.0618C23.7189 10.0169 23.8442 9.99606 23.9699 10.0006C25.4194 10.0006 26.8547 10.2863 28.1938 10.8414C29.5328 11.3965 30.7493 12.2101 31.7737 13.2356C32.7981 14.2611 33.6103 15.4786 34.1639 16.8182C34.7175 18.1579 35.0016 19.5935 35 21.043C35.0003 21.166 34.9763 21.2879 34.9294 21.4016C34.8825 21.5153 34.8136 21.6186 34.7266 21.7056C34.6396 21.7926 34.5363 21.8615 34.4226 21.9084C34.3089 21.9553 34.187 21.9781 34.064 21.9778Z"
      fill="white" />
</svg>