<svg xmlns="http://www.w3.org/2000/svg" width="45" height="45" viewBox="0 0 45 45" fill="none">
   <rect width="45" height="45" rx="4" fill="#3360A9" />
   <path
      d="M12.5054 31C11.9132 31 11.419 30.802 11.023 30.406C10.627 30.01 10.4286 29.5154 10.4277 28.9223V15.0777C10.4277 14.4854 10.6262 13.9913 11.023 13.5953C11.4199 13.1993 11.9136 13.0009 12.5042 13H31.4942C32.0856 13 32.5793 13.1984 32.9753 13.5953C33.3713 13.9921 33.5697 14.4863 33.5706 15.0777V28.9236C33.5706 29.515 33.3722 30.0091 32.9753 30.406C32.5784 30.8029 32.0847 31.0009 31.4942 31H12.5054ZM21.9992 21.9486C22.1063 21.9486 22.2066 21.9323 22.3 21.8997C22.3926 21.8671 22.4843 21.8273 22.5752 21.7801L31.8696 15.6949C31.9913 15.6211 32.0706 15.5204 32.1074 15.3927C32.1443 15.265 32.1374 15.1377 32.0869 15.0109C32.0543 14.8454 31.9463 14.7254 31.7629 14.6509C31.5803 14.5771 31.4033 14.5921 31.2319 14.6959L21.9992 20.7143L12.7677 14.6971C12.5963 14.5926 12.4232 14.5703 12.2483 14.6303C12.0734 14.6903 11.9612 14.8086 11.9114 14.9851C11.8617 15.1171 11.8553 15.2513 11.8922 15.3876C11.929 15.5239 12.0079 15.6267 12.1287 15.6961L21.4232 21.7801C21.514 21.8273 21.6057 21.8671 21.6983 21.8997C21.7917 21.9314 21.892 21.9473 21.9992 21.9473"
      fill="white" />
</svg>