<svg xmlns="http://www.w3.org/2000/svg" width="45" height="45" viewBox="0 0 45 45" fill="none">
   <rect width="45" height="45" rx="4" fill="#3360A9" />
   <path
      d="M22.5004 34.5C22.5004 34.5 13.8379 23.2016 13.8379 18.4125C13.8379 17.2749 14.062 16.1485 14.4973 15.0975C14.9326 14.0465 15.5707 13.0916 16.3751 12.2872C17.1795 11.4828 18.1344 10.8447 19.1854 10.4094C20.2364 9.97406 21.3628 9.75 22.5004 9.75C23.638 9.75 24.7644 9.97406 25.8154 10.4094C26.8664 10.8447 27.8213 11.4828 28.6257 12.2872C29.4301 13.0916 30.0682 14.0465 30.5035 15.0975C30.9388 16.1485 31.1629 17.2749 31.1629 18.4125C31.1629 23.2016 22.5004 34.5 22.5004 34.5ZM22.5004 20.8875C23.1568 20.8875 23.7863 20.6267 24.2505 20.1626C24.7146 19.6984 24.9754 19.0689 24.9754 18.4125C24.9754 17.7561 24.7146 17.1266 24.2505 16.6624C23.7863 16.1983 23.1568 15.9375 22.5004 15.9375C21.844 15.9375 21.2145 16.1983 20.7503 16.6624C20.2861 17.1266 20.0254 17.7561 20.0254 18.4125C20.0254 19.0689 20.2861 19.6984 20.7503 20.1626C21.2145 20.6267 21.844 20.8875 22.5004 20.8875Z"
      fill="white" />
</svg>