<svg width="34" height="35" viewBox="0 0 34 35" fill="none" xmlns="http://www.w3.org/2000/svg">
<g id="pdf2">
<path id="Vector" d="M27.4751 7.15205L23.7563 3.31759C23.7068 3.26654 23.6475 3.22595 23.582 3.19824C23.5165 3.17053 23.4461 3.15625 23.375 3.15625H6.90625C6.4837 3.15671 6.0786 3.32478 5.77981 3.62356C5.48103 3.92235 5.31296 4.32745 5.3125 4.75V31.8438C5.31296 32.2663 5.48103 32.6714 5.77981 32.9702C6.0786 33.269 6.4837 33.437 6.90625 33.4375H26.0312C26.4538 33.437 26.8589 33.269 27.1577 32.9702C27.4565 32.6714 27.6245 32.2663 27.625 31.8438V7.52196C27.625 7.38385 27.5712 7.25118 27.4751 7.15205Z" fill="#BDBDBD"/>
<path id="Vector_2" d="M29.2188 9.14875V30.25C29.2175 30.6723 29.0492 31.077 28.7506 31.3756C28.452 31.6742 28.0473 31.8425 27.625 31.8438H8.5C8.07769 31.8425 7.67303 31.6742 7.37441 31.3756C7.07579 31.077 6.90748 30.6723 6.90625 30.25V3.15625C6.90748 2.73394 7.07579 2.32928 7.37441 2.03066C7.67303 1.73204 8.07769 1.56373 8.5 1.5625H21.7706C21.8409 1.56277 21.9105 1.577 21.9752 1.60436C22.04 1.63172 22.0986 1.67166 22.1478 1.72187L29.0647 8.77688C29.1145 8.82499 29.1539 8.88283 29.1804 8.9468C29.2069 9.01077 29.2199 9.07951 29.2188 9.14875Z" fill="#EEEEEE"/>
<path id="Vector_3" d="M29.2188 9.14875V9.53125H21.7812C21.6405 9.53084 21.5056 9.47474 21.406 9.3752C21.3065 9.27566 21.2504 9.14077 21.25 9V1.5625H21.7706C21.8409 1.56277 21.9105 1.577 21.9752 1.60436C22.04 1.63172 22.0986 1.67166 22.1478 1.72187L29.0647 8.77688C29.1145 8.82499 29.1539 8.88283 29.1804 8.9468C29.2069 9.01077 29.2199 9.07951 29.2188 9.14875Z" fill="#BDBDBD"/>
<path id="Vector_4" d="M29.2188 12.1875H6.90625V21.2188H29.2188V12.1875Z" fill="#E53935"/>
<path id="Vector_5" d="M14.8122 14.8657C14.6893 14.618 14.5021 14.408 14.2702 14.2575C14.0382 14.107 13.7701 14.0217 13.4939 14.0104H11.7362C11.6741 14.0091 11.6124 14.0204 11.5547 14.0435C11.4971 14.0667 11.4448 14.1013 11.4008 14.1452C11.3569 14.1891 11.3223 14.2414 11.2991 14.299C11.276 14.3566 11.2647 14.4183 11.2659 14.4804V18.9369C11.2638 18.9964 11.2736 19.0558 11.2949 19.1115C11.3162 19.1672 11.3485 19.218 11.3899 19.2609C11.4313 19.3038 11.4809 19.3379 11.5358 19.3612C11.5906 19.3846 11.6496 19.3966 11.7092 19.3966C11.7688 19.3966 11.8278 19.3846 11.8827 19.3612C11.9375 19.3379 11.9872 19.3038 12.0285 19.2609C12.0699 19.218 12.1022 19.1672 12.1235 19.1115C12.1448 19.0558 12.1547 18.9964 12.1525 18.9369V17.4794H13.4939C14.7273 17.4729 15.4064 15.8702 14.8122 14.8657ZM14.0106 16.157C13.9075 16.3731 13.7278 16.5963 13.4939 16.6006H12.1525V14.8968H13.4939C14.0218 14.959 14.2395 15.7195 14.0106 16.157ZM20.39 15.658C20.2686 15.179 19.9889 14.7551 19.5964 14.455C19.2038 14.1549 18.7214 13.9962 18.2273 14.0046H16.3849C16.3228 14.0033 16.2611 14.0146 16.2035 14.0377C16.1458 14.0609 16.0935 14.0955 16.0495 14.1394C16.0056 14.1833 15.971 14.2356 15.9478 14.2932C15.9247 14.3508 15.9134 14.4125 15.9146 14.4746V18.9311C15.9134 18.9932 15.9247 19.0549 15.9478 19.1125C15.971 19.1701 16.0056 19.2225 16.0495 19.2664C16.0935 19.3103 16.1458 19.3448 16.2035 19.368C16.2611 19.3912 16.3228 19.4024 16.3849 19.4011H18.2273C19.7219 19.4481 20.5692 18.0786 20.5401 16.7029C20.5424 16.349 20.4919 15.9969 20.39 15.658ZM19.3955 17.6009C19.3208 17.871 19.1573 18.108 18.9314 18.2738C18.7055 18.4396 18.4304 18.5244 18.1503 18.5146H16.8783V14.8915H18.1503C19.1275 14.8596 19.5635 15.8512 19.5382 16.7031C19.541 17.0082 19.4928 17.3117 19.3955 17.6009ZM24.4027 14.8915C24.4621 14.8935 24.5213 14.8834 24.5768 14.862C24.6323 14.8406 24.6829 14.8083 24.7257 14.7669C24.7684 14.7256 24.8024 14.6761 24.8256 14.6213C24.8488 14.5665 24.8608 14.5077 24.8608 14.4482C24.8608 14.3887 24.8488 14.3299 24.8256 14.2751C24.8024 14.2204 24.7684 14.1708 24.7257 14.1295C24.6829 14.0881 24.6323 14.0558 24.5768 14.0344C24.5213 14.013 24.4621 14.003 24.4027 14.0049H21.8971C21.835 14.0036 21.7733 14.0149 21.7157 14.038C21.6581 14.0612 21.6057 14.0958 21.5618 14.1397C21.5178 14.1836 21.4832 14.2359 21.46 14.2935C21.4369 14.3511 21.4255 14.4129 21.4268 14.475V18.9314C21.4256 18.9948 21.4374 19.0578 21.4616 19.1164C21.4858 19.175 21.5218 19.228 21.5673 19.2721C21.6129 19.3162 21.667 19.3505 21.7264 19.3727C21.7858 19.395 21.8491 19.4047 21.9124 19.4015C21.9747 19.402 22.0365 19.3903 22.0942 19.367C22.152 19.3437 22.2046 19.3092 22.249 19.2656C22.2934 19.2219 22.3287 19.1699 22.353 19.1126C22.3773 19.0552 22.3901 18.9937 22.3906 18.9314V17.1349H24.0559C24.1154 17.1369 24.1746 17.1269 24.2301 17.1055C24.2856 17.0841 24.3362 17.0517 24.3789 17.0104C24.4217 16.969 24.4556 16.9195 24.4789 16.8647C24.5021 16.81 24.514 16.7511 24.514 16.6916C24.514 16.6322 24.5021 16.5733 24.4789 16.5185C24.4556 16.4638 24.4217 16.4142 24.3789 16.3729C24.3362 16.3315 24.2856 16.2992 24.2301 16.2778C24.1746 16.2564 24.1154 16.2464 24.0559 16.2483H22.3905V14.8915H24.4027Z" fill="#EEEEEE"/>
</g>
</svg>
