<svg width="41" height="41" viewBox="0 0 41 41" fill="none" xmlns="http://www.w3.org/2000/svg">
<g id="download (46) 1" clip-path="url(#clip0_2086_389)">
<g id="Glyph">
<path id="Vector" d="M38.1129 25.7244C38.6743 25.4521 39.1807 25.0786 39.6069 24.6229C40.9759 23.1321 40.9121 21.2407 40.8241 18.6234C40.7379 16.0609 40.6722 14.1986 39.252 12.7345C36.4909 5.07998 28.771 0.209305 20.4993 0.208984C12.2275 0.208664 4.5067 5.0803 1.74689 12.7342C0.326304 14.1986 0.26064 16.0596 0.174476 18.6234C0.0863904 21.2407 0.0226483 23.1321 1.39807 24.6299C1.80487 25.0629 2.28355 25.4221 2.81289 25.6918C2.90014 25.7337 2.99798 25.7486 3.09375 25.7343C3.18951 25.7201 3.2788 25.6774 3.35005 25.6118C3.4213 25.5463 3.47124 25.4608 3.49339 25.3666C3.51555 25.2723 3.50891 25.1736 3.47434 25.0832C2.68372 23.0785 2.28089 20.942 2.28726 18.7871C2.19757 9.17229 10.9466 1.81055 20.4993 1.81055C30.0519 1.81055 38.8016 9.17325 38.7113 18.7871C38.7118 20.9556 38.2874 23.1032 37.4621 25.1085C37.4271 25.1981 37.4197 25.2961 37.4407 25.39C37.4618 25.4839 37.5104 25.5693 37.5802 25.6355C37.6501 25.7016 37.7381 25.7454 37.833 25.7612C37.9279 25.7771 38.0254 25.7643 38.1129 25.7244Z" fill="#003893"/>
<path id="Vector_2" d="M23.8121 25.2468C24.1701 24.8837 24.3693 24.3931 24.3657 23.8831C24.3621 23.3731 24.156 22.8855 23.7929 22.5274C23.4297 22.1693 22.9391 21.9702 22.4291 21.9738C21.9191 21.9774 21.4315 22.1834 21.0734 22.5466C21.0044 22.632 20.9189 22.7027 20.8221 22.7544C20.7252 22.8061 20.619 22.8378 20.5096 22.8477C20.2916 22.8238 20.0909 22.7172 19.9491 22.5498C19.5915 22.1862 19.104 21.9796 18.594 21.9754C18.084 21.9712 17.5932 22.1697 17.2296 22.5274C16.8661 22.885 16.6594 23.3725 16.6552 23.8825C16.651 24.3925 16.8496 24.8832 17.2072 25.2468C17.6294 25.7006 18.1405 26.0624 18.7086 26.3099C19.2768 26.5573 19.8899 26.685 20.5096 26.685C21.1294 26.685 21.7425 26.5573 22.3106 26.3099C22.8788 26.0624 23.3899 25.7006 23.8121 25.2468ZM25.9389 22.4697C26.4555 22.4594 26.9472 22.2463 27.3079 21.8766C27.6687 21.5068 27.8696 21.01 27.8672 20.4934C27.8608 19.9617 27.8608 18.895 27.8672 18.3633C27.8706 17.8488 27.6723 17.3535 27.3149 16.9835C26.9574 16.6135 26.4692 16.3982 25.955 16.3838C25.4449 16.3855 24.956 16.5882 24.5944 16.948C24.2328 17.3077 24.0277 17.7956 24.0235 18.3057V20.5479C24.0262 21.0556 24.2287 21.5419 24.5872 21.9015C24.9456 22.2612 25.4312 22.4653 25.9389 22.4697ZM16.9766 18.3057C16.9715 17.7981 16.7679 17.3127 16.4092 16.9534C16.0506 16.5942 15.5655 16.3897 15.0579 16.3838C14.5414 16.395 14.05 16.6088 13.6899 16.9792C13.3297 17.3496 13.1296 17.8467 13.1329 18.3633C13.1393 18.895 13.1393 19.9617 13.1329 20.4934C13.1297 21.0097 13.3299 21.5064 13.6902 21.8763C14.0504 22.2461 14.5417 22.4593 15.0579 22.4697C15.5658 22.4649 16.0515 22.2607 16.4104 21.9013C16.7693 21.5418 16.9726 21.0558 16.9766 20.5479V18.3057Z" fill="#003893"/>
<path id="Vector_3" d="M12.2946 39.7506C12.5498 40.1597 12.9316 40.4742 13.382 40.6463C13.8323 40.8183 14.3266 40.8386 14.7895 40.7038C18.7774 39.5924 22.1147 37.428 24.4537 34.4385C32.293 32.9613 37.7508 26.5524 37.7508 18.7878C37.7433 16.689 37.3085 14.6137 36.4729 12.6884C35.6373 10.7631 34.4183 9.02816 32.8904 7.5893C29.6607 4.48227 25.2608 2.77148 20.4997 2.77148C15.7386 2.77148 11.3388 4.48227 8.10907 7.58866C6.58111 9.02752 5.36216 10.7625 4.52654 12.6877C3.69091 14.613 3.25612 16.6883 3.24865 18.7871C3.21838 22.2294 4.32381 25.5856 6.39377 28.3361C8.46373 31.0867 11.3828 33.0781 14.6989 34.002C14.3033 34.953 13.4689 35.9216 12.4746 37.0875C12.1575 37.4507 11.9682 37.9077 11.9357 38.3887C11.9032 38.8697 12.0293 39.3481 12.2946 39.7506ZM20.4997 8.05696C20.7848 8.05696 21.0635 8.1415 21.3005 8.29988C21.5376 8.45827 21.7223 8.68338 21.8314 8.94676C21.9405 9.21015 21.9691 9.49997 21.9134 9.77957C21.8578 10.0592 21.7205 10.316 21.519 10.5176C21.3174 10.7192 21.0605 10.8565 20.7809 10.9121C20.5013 10.9677 20.2115 10.9391 19.9481 10.8301C19.6847 10.721 19.4596 10.5362 19.3012 10.2992C19.1429 10.0621 19.0583 9.78345 19.0583 9.49837C19.0583 9.11608 19.2102 8.74945 19.4805 8.47914C19.7508 8.20882 20.1174 8.05696 20.4997 8.05696ZM7.39286 16.796C7.54448 15.3247 8.23519 13.9614 9.33193 12.9689C10.4287 11.9763 11.8539 11.4247 13.3331 11.4202C16.9164 11.4302 16.9164 13.4209 20.4997 13.4209C24.0831 13.4209 24.0831 11.4308 27.6664 11.4209C29.1456 11.4254 30.5708 11.977 31.6675 12.9695C32.7643 13.9621 33.455 15.3253 33.6066 16.7967C34.4653 24.8343 28.6594 31.9202 20.4997 31.9202C12.3401 31.9202 6.5341 24.8343 7.39286 16.796Z" fill="#003893"/>
</g>
</g>
<defs fill="#000000">
<clipPath id="clip0_2086_389" fill="#000000">
<rect width="41" height="41" fill="white"/>
</clipPath>
</defs>
</svg>